<svg width="20" height="20" viewBox="0 0 20 20" fill="none" xmlns="http://www.w3.org/2000/svg">
<mask id="mask0_108_15250" style="mask-type:alpha" maskUnits="userSpaceOnUse" x="0" y="0" width="20" height="20">
<rect width="20" height="20" fill="#D9D9D9"/>
</mask>
<g mask="url(#mask0_108_15250)">
<path d="M5.02079 14.407C5.72913 13.8814 6.50079 13.4663 7.33579 13.1617C8.17066 12.8573 9.05927 12.7051 10.0016 12.7051C10.944 12.7051 11.8326 12.8573 12.6675 13.1617C13.5025 13.4663 14.2741 13.8814 14.9825 14.407C15.5005 13.8375 15.911 13.1783 16.2139 12.4295C16.5168 11.6806 16.6683 10.8697 16.6683 9.99675C16.6683 8.14952 16.019 6.57661 14.7204 5.278C13.4218 3.97938 11.8489 3.33008 10.0016 3.33008C8.15441 3.33008 6.58149 3.97938 5.28288 5.278C3.98427 6.57661 3.33496 8.14952 3.33496 9.99675C3.33496 10.8697 3.48642 11.6806 3.78934 12.4295C4.09225 13.1783 4.50274 13.8375 5.02079 14.407ZM10.0016 10.6217C9.24093 10.6217 8.59941 10.3605 8.07704 9.838C7.55454 9.31563 7.29329 8.67411 7.29329 7.91341C7.29329 7.15272 7.55454 6.51119 8.07704 5.98883C8.59941 5.46633 9.24093 5.20508 10.0016 5.20508C10.7623 5.20508 11.4039 5.46633 11.9262 5.98883C12.4487 6.51119 12.71 7.15272 12.71 7.91341C12.71 8.67411 12.4487 9.31563 11.9262 9.838C11.4039 10.3605 10.7623 10.6217 10.0016 10.6217ZM10.0016 17.9134C8.90232 17.9134 7.87107 17.7067 6.90788 17.2932C5.94468 16.8797 5.10684 16.3167 4.39434 15.604C3.6817 14.8915 3.11864 14.0537 2.70517 13.0905C2.2917 12.1273 2.08496 11.0961 2.08496 9.99675C2.08496 8.89744 2.2917 7.86619 2.70517 6.903C3.11864 5.9398 3.6817 5.10195 4.39434 4.38945C5.10684 3.67681 5.94468 3.11376 6.90788 2.70029C7.87107 2.28681 8.90232 2.08008 10.0016 2.08008C11.1009 2.08008 12.1322 2.28681 13.0954 2.70029C14.0586 3.11376 14.8964 3.67681 15.6089 4.38945C16.3216 5.10195 16.8846 5.9398 17.2981 6.903C17.7116 7.86619 17.9183 8.89744 17.9183 9.99675C17.9183 11.0961 17.7116 12.1273 17.2981 13.0905C16.8846 14.0537 16.3216 14.8915 15.6089 15.604C14.8964 16.3167 14.0586 16.8797 13.0954 17.2932C12.1322 17.7067 11.1009 17.9134 10.0016 17.9134Z" fill="#2A2727"/>
</g>
</svg>
